<?xml version="1.0" standalone="no"?>
<!DOCTYPE svg PUBLIC "-//W3C//DTD SVG 20010904//EN"
 "http://www.w3.org/TR/2001/REC-SVG-20010904/DTD/svg10.dtd">
<svg version="1.0" xmlns="http://www.w3.org/2000/svg"
 width="300.000000pt" height="300.000000pt" viewBox="0 0 300.000000 300.000000"
 preserveAspectRatio="xMidYMid meet">
<metadata>
Created by potrace 1.14, written by Peter Selinger 2001-2017
</metadata>
<g transform="translate(0.000000,300.000000) scale(0.100000,-0.100000)"
fill="#000000" stroke="none">
<path d="M1057 2743 c-1 -1 -18 -4 -37 -6 -19 -3 -36 -6 -37 -7 -2 -2 -6 -3
-10 -4 -5 -1 -24 -11 -43 -23 -44 -27 -68 -70 -109 -190 -17 -50 -38 -107 -46
-127 -14 -34 -80 -106 -97 -106 -16 0 -23 -2 -33 -9 -5 -4 -16 -6 -22 -5 -7 1
-17 2 -21 3 -5 0 -9 73 -9 162 0 212 7 203 -179 204 -178 0 -172 6 -173 -195
0 -80 0 -152 0 -161 -1 -12 -11 -17 -39 -17 -20 0 -48 -5 -62 -10 -14 -5 -29
-10 -33 -10 -18 0 -70 -58 -88 -97 -18 -38 -19 -84 -19 -881 0 -917 -2 -878
56 -944 59 -65 -30 -62 1440 -61 732 0 1339 3 1350 7 81 27 126 68 144 132 6
24 10 324 10 872 -1 794 -2 837 -20 875 -42 90 -96 115 -263 119 -187 4 -213
25 -286 227 -26 74 -52 143 -58 154 -16 30 -54 62 -88 76 -45 18 -62 19 -200
20 -38 0 -77 0 -85 0 -8 0 -181 0 -385 0 -203 0 -412 0 -463 2 -52 1 -94 1
-95 0z"/>
</g>
</svg>
